<?xml version="1.0" encoding="UTF-8" standalone="no"?>
<!DOCTYPE svg PUBLIC "-//W3C//DTD SVG 1.1//EN" "http://www.w3.org/Graphics/SVG/1.1/DTD/svg11.dtd">
<svg width="100%" height="100%" viewBox="0 0 910 337" version="1.1" xmlns="http://www.w3.org/2000/svg" xmlns:xlink="http://www.w3.org/1999/xlink" xml:space="preserve" xmlns:serif="http://www.serif.com/" style="fill-rule:evenodd;clip-rule:evenodd;stroke-linejoin:round;stroke-miterlimit:2;">
    <g transform="matrix(1,0,0,1,-782.457,-271.534)">
        <path d="M782.457,608.533L823.825,596.298L869.709,591.403L919.264,575.497L938.841,575.497L949.241,565.097L965.759,562.038L981.054,562.038L1029.38,537.566L1073.43,530.225L1107.69,511.872L1157.25,499.636L1189.06,509.424L1215.37,517.989L1255.75,510.648L1288.17,488.012L1305.91,473.941L1322.43,434.175L1341.39,418.269L1350.57,422.551L1357.3,431.728L1371.37,421.328L1384.22,399.915L1400.13,399.303L1410.53,392.574L1428.27,404.198L1448.46,384.009L1461.3,366.267L1489.45,360.149L1502.91,370.549L1529.21,370.549L1581.83,354.643L1610.21,402.665L1691.58,460.929L1691.58,608.533L782.457,608.533Z" style="fill:rgb(167,227,252);fill-opacity:0.2;fill-rule:nonzero;"/>
    </g>
    <g transform="matrix(1,0,0,1,-782.457,-271.534)">
        <path d="M876.847,608.533L844.626,608.533L864.203,603.639L876.847,608.533ZM920.821,608.533L966.371,597.521L1015.93,582.838L1048.35,585.286L1086.28,574.274L1121.76,564.485L1151.13,556.532L1177.44,564.485L1263.35,608.533L920.821,608.533Z" style="fill:rgb(167,227,252);fill-opacity:0.2;fill-rule:nonzero;"/>
    </g>
    <g transform="matrix(1,0,0,1,-782.457,-271.534)">
        <path d="M1691.58,271.534L1691.58,608.533L1141.76,608.533L1293.06,528.39L1411.75,485.565L1508.41,425.61L1548.79,395.021L1614.25,315.489L1617.92,313.654L1627.1,304.477L1649.73,289.182L1668.7,275.723L1676.65,278.17L1691.58,271.534Z" style="fill:rgb(167,227,252);fill-opacity:0.2;fill-rule:nonzero;"/>
    </g>
    <g transform="matrix(1,0,0,1,-782.457,-271.534)">
        <path d="M1691.58,432.626L1691.58,608.533L1097.15,608.533L1099.74,605.475L1100.35,604.863L1140.73,557.755L1195.79,521.048L1250.85,497.189L1301.63,507.589L1405.63,521.048L1458.25,492.294L1487.61,497.189L1512.08,502.083L1590.39,445.799L1658.3,425.61L1670.53,425.61L1691.58,432.626Z" style="fill:rgb(167,227,252);fill-opacity:0.2;fill-rule:nonzero;"/>
    </g>
</svg>
