<?xml version="1.0" encoding="UTF-8" standalone="no"?>
<!DOCTYPE svg PUBLIC "-//W3C//DTD SVG 1.1//EN" "http://www.w3.org/Graphics/SVG/1.1/DTD/svg11.dtd">
<svg width="100%" height="100%" viewBox="0 0 877 236" version="1.1" xmlns="http://www.w3.org/2000/svg" xmlns:xlink="http://www.w3.org/1999/xlink" xml:space="preserve" xmlns:serif="http://www.serif.com/" style="fill-rule:evenodd;clip-rule:evenodd;stroke-linejoin:round;stroke-miterlimit:2;">
    <g transform="matrix(1,0,0,1,0,-281.699)">
        <path d="M0,292.62L18.176,285.981L32.247,281.699L49.988,290.264L78.742,285.981L104.437,287.817L114.838,285.981L144.815,306.782L161.333,304.947L185.193,312.9L223.735,328.806L266.56,360.619L305.102,377.749L328.35,374.078L369.34,394.879L384.022,393.655L415.223,378.973L434.801,383.255L453.154,396.714L473.214,436.437L503.56,436.437L540.874,478.499L591.501,481.445L630.819,517.569L0,517.569L0,292.62Z" style="fill:rgb(167,227,252);fill-opacity:0.2;fill-rule:nonzero;"/>
    </g>
    <g transform="matrix(6.11784,0,0,6.11784,-732.483,-453.332)">
        <path d="M248.151,112.654L242.4,106.5L238.8,105.1L232.8,100.3L222,94.8L214,90.9L207.3,87.1L204.6,85.8L202.6,85.8L199.5,87.4L191.3,93.7L188.1,94L181.757,96.57L179.288,100.435L173.08,101.963L167.131,112.654L248.151,112.654Z" style="fill:rgb(167,227,252);fill-opacity:0.2;fill-rule:nonzero;"/>
    </g>
    <g transform="matrix(1,0,0,1,0,-281.699)">
        <path d="M0,517.569L0,451.187C11.967,448.543 26.888,448.986 49.764,457.741C58.225,452.267 70.135,449.571 89.956,453.243C99.385,459.947 112.463,461.625 129.024,458.507C140.038,454.84 153.201,452.845 171.84,455.115C176.879,459.874 186.153,463.575 207.847,464.177C218.882,458.688 234.813,454.955 267.7,457.306C274.175,462.447 283.597,466.07 303.726,464.177C311.874,458.575 327.187,457.068 348.798,459.16C361.477,458.591 372.389,460.399 381.837,464.177C392.917,462.201 404.781,461.074 417.367,460.728L480.684,462.175L517.391,473.799L584.076,484.199L608.547,473.187L644.642,473.799L675.232,460.34L707.044,465.234L735.798,481.752L774.341,476.858L795.141,486.035L843.979,505L875.966,515.4L876.338,517.569L0,517.569Z" style="fill:rgb(167,227,252);fill-opacity:0.2;fill-rule:nonzero;"/>
    </g>
    <g transform="matrix(1,0,0,1,0,-281.699)">
        <path d="M0,367.874L27.964,373.467L55.495,370.408L79.354,376.525L97.096,383.867L111.167,394.267L130.744,386.926L148.486,389.373L168.063,396.714L185.193,392.432L203.546,383.867L221.288,387.538L245.148,397.326L273.901,412.621L283.078,423.633L302.654,446.252L315.41,447.72L327.849,475.365L349.054,500.277L370.766,500.153L402.446,517.569L0,517.569L0,367.874Z" style="fill:rgb(167,227,252);fill-opacity:0.2;fill-rule:nonzero;"/>
    </g>
    <g transform="matrix(1,0,0,1,0,-281.699)">
        <path d="M0,517.569L0,425.849L81.368,460.34L143.619,443.987L196.817,448.104L224.347,440.763L262.277,416.903L280.019,410.785L341.198,415.68L370.563,431.586L443.366,481.752L510.813,505L574.805,487.258L615.245,500.526L701.538,509.951L728.747,517.569L0,517.569Z" style="fill:rgb(167,227,252);fill-opacity:0.2;fill-rule:nonzero;"/>
    </g>
</svg>
