<?xml version="1.0" encoding="UTF-8" standalone="no"?>
<!DOCTYPE svg PUBLIC "-//W3C//DTD SVG 1.1//EN" "http://www.w3.org/Graphics/SVG/1.1/DTD/svg11.dtd">
<svg width="100%" height="100%" viewBox="0 0 113 36" version="1.1" xmlns="http://www.w3.org/2000/svg" xmlns:xlink="http://www.w3.org/1999/xlink" xml:space="preserve" xmlns:serif="http://www.serif.com/" style="fill-rule:evenodd;clip-rule:evenodd;stroke-linejoin:round;stroke-miterlimit:2;">
    <g>
        <path d="M33.141,19.8L28.191,21.15L22.566,18L28.191,14.85L33.366,16.2C34.491,16.425 35.841,15.75 36.066,14.625C36.291,13.5 35.616,12.15 34.491,11.925L30.666,10.8L31.566,6.75C31.791,5.625 31.116,4.275 29.991,4.05C28.866,3.825 27.516,4.5 27.291,5.625L25.941,10.8L20.316,14.175L20.316,7.65L24.141,3.825C25.041,2.925 25.041,1.575 24.141,0.675C23.241,-0.225 21.891,-0.225 20.991,0.675L18.066,3.6L15.141,0.675C14.241,-0.225 12.891,-0.225 11.991,0.675C11.091,1.575 11.091,2.925 11.991,3.825L15.816,7.65L15.816,14.175L10.191,10.8L8.841,5.625C8.616,4.5 7.266,3.825 6.141,4.05C4.791,4.275 4.116,5.625 4.566,6.75L5.691,10.8L1.866,11.7C0.516,12.15 -0.159,13.275 0.066,14.625C0.516,15.75 1.641,16.425 2.991,16.2L8.166,14.85L13.566,18L7.941,21.15L2.991,19.8C1.641,19.575 0.516,20.25 0.066,21.375C-0.384,22.5 0.516,23.85 1.641,24.075L5.466,24.975L4.566,29.25C4.341,30.375 5.016,31.725 6.141,31.95C7.266,32.175 8.616,31.5 8.841,30.375L10.191,25.2L15.816,21.825L15.816,28.35L11.991,32.175C11.091,33.075 11.091,34.425 11.991,35.325C12.891,36.225 14.241,36.225 15.141,35.325L18.066,32.4L20.991,35.325C21.891,36.225 23.241,36.225 24.141,35.325C25.041,34.425 25.041,33.075 24.141,32.175L20.316,28.35L20.316,21.825L25.941,24.975L27.291,30.15C27.516,31.275 28.866,32.175 29.991,31.725C31.116,31.5 32.016,30.15 31.566,29.025L30.441,24.975L34.266,24.075C35.391,23.85 36.066,22.5 35.841,21.375C35.616,20.25 34.266,19.575 33.141,19.8ZM94.928,36C93.693,36 92.678,34.984 92.678,33.75L92.678,2.25C92.678,1.016 93.693,0 94.928,0C96.162,0 97.178,1.016 97.178,2.25L97.178,33.75C97.178,34.984 96.162,36 94.928,36ZM88.178,29.25C86.943,29.25 85.928,28.234 85.928,27L85.928,9C85.928,7.766 86.943,6.75 88.178,6.75C89.412,6.75 90.428,7.766 90.428,9L90.428,27C90.428,28.234 89.412,29.25 88.178,29.25ZM101.678,29.25C100.443,29.25 99.428,28.234 99.428,27L99.428,9C99.428,7.766 100.443,6.75 101.678,6.75C102.912,6.75 103.928,7.766 103.928,9L103.928,27C103.928,28.234 102.912,29.25 101.678,29.25ZM56.464,17.107L60.483,13.087C60.73,12.841 61.13,12.841 61.377,13.087C61.623,13.334 61.623,13.734 61.377,13.981L57.357,18L61.377,22.019C61.623,22.266 61.623,22.666 61.377,22.913C61.13,23.159 60.73,23.159 60.483,22.913L56.464,18.893L52.444,22.913C52.198,23.159 51.798,23.159 51.551,22.913C51.305,22.666 51.305,22.266 51.551,22.019L55.571,18L51.551,13.981C51.305,13.734 51.305,13.334 51.551,13.087C51.798,12.841 52.198,12.841 52.444,13.087L56.464,17.107ZM81.428,22.5C80.193,22.5 79.178,21.484 79.178,20.25L79.178,15.75C79.178,14.516 80.193,13.5 81.428,13.5C82.662,13.5 83.678,14.516 83.678,15.75L83.678,20.25C83.678,21.484 82.662,22.5 81.428,22.5ZM108.428,22.5C107.193,22.5 106.178,21.484 106.178,20.25L106.178,15.75C106.178,14.516 107.193,13.5 108.428,13.5C109.662,13.5 110.678,14.516 110.678,15.75L110.678,20.25C110.678,21.484 109.662,22.5 108.428,22.5Z" style="fill:rgb(167,226,253);fill-rule:nonzero;"/>
    </g>
</svg>
